<svg width="28" height="34" viewBox="0 0 28 34" fill="none" xmlns="http://www.w3.org/2000/svg">
<path d="M26.2461 5.14062H21.269L21.7436 2.43359H23.5391C24.073 2.43359 24.5059 2.00073 24.5059 1.4668C24.5059 0.932867 24.073 0.5 23.5391 0.5H20.9316C20.4621 0.5 20.0604 0.837348 19.9794 1.29986L19.306 5.14062H1.75391C1.21998 5.14062 0.787109 5.57349 0.787109 6.10742V10.748C0.787109 11.282 1.21998 11.7148 1.75391 11.7148H3.39733C3.65785 13.8522 3.84122 15.3554 4.04837 17.0534C8.21598 18.0059 8.92071 20.6094 14 20.6094C19.0696 20.6094 19.7939 18.0049 23.9516 17.0527C24.0895 15.9227 24.4647 12.8457 24.6027 11.7148H26.2461C26.78 11.7148 27.2129 11.282 27.2129 10.748V6.10742C27.2129 5.57349 26.78 5.14062 26.2461 5.14062Z" fill="#F5BA3C"/>
<path d="M14.0001 22.5428C8.72787 22.5428 7.37403 20.0969 4.3009 19.1224L5.47936 28.7829C5.47936 28.7829 5.47936 28.783 5.47936 28.7831L5.95052 32.6501C6.00968 33.1351 6.42154 33.4998 6.91022 33.4998H21.0899C21.5786 33.4998 21.9905 33.1351 22.0496 32.6501L22.2077 31.3528C22.2077 31.3528 23.6994 19.1212 23.6994 19.1211C20.6307 20.095 19.2721 22.5428 14.0001 22.5428ZM20.2338 31.5662H7.76636L7.53078 29.6326H20.4696C20.3821 30.3497 20.3138 30.9102 20.2338 31.5662Z" fill="#F5BA3C"/>
</svg>
