<svg width="33" height="34" viewBox="0 0 33 34" fill="none" xmlns="http://www.w3.org/2000/svg">
<path d="M23.5876 1.4668C23.5876 0.932867 23.1548 0.5 22.6209 0.5H18.7537C18.2197 0.5 17.7869 0.932867 17.7869 1.4668V3.14258H23.5876V1.4668Z" fill="#0CD4DC"/>
<path d="M6.54248 28.4268C5.69118 27.9246 4.9055 27.3159 4.20727 26.6177C4.15629 26.5667 4.10653 26.5147 4.05665 26.4629C2.90545 27.0364 1.86518 27.8377 1.00415 28.8358C0.691163 29.1986 0.691163 29.736 1.00415 30.0989C2.86878 32.2603 5.574 33.4999 8.42605 33.4999C9.27677 33.4999 10.1141 33.3888 10.9203 33.1767C9.90815 32.1088 9.08167 30.8861 8.46801 29.5628L6.54248 28.4268Z" fill="#0CD4DC"/>
<path d="M7.52519 26.7615C7.32242 25.8311 7.21658 24.8737 7.21658 23.9037C7.21658 21.7086 7.75103 19.5915 8.72601 17.7093C7.16483 16.9298 5.40597 16.5731 3.62461 16.7044C3.14669 16.7396 2.76668 17.1196 2.73148 17.5975C2.52169 20.4444 3.55803 23.2338 5.57471 25.2505C6.16465 25.8404 6.82091 26.346 7.52519 26.7615Z" fill="#0CD4DC"/>
<path d="M26.2359 13.7865C24.6857 12.9346 23.7965 11.4317 23.7965 9.66293V7.00566C24.2929 6.9648 24.6831 6.54978 24.6831 6.04292C24.6831 5.53516 24.2914 5.11963 23.7938 5.08006C23.7936 5.07748 17.5805 5.07748 17.5803 5.08006C17.0828 5.11963 16.691 5.53516 16.691 6.04292C16.691 6.54978 17.0813 6.9648 17.5776 7.00566V9.66293C17.5776 11.4316 16.6885 12.9346 15.1383 13.7865C12.6009 15.1808 10.7239 17.4467 9.79724 20.0937H31.5769C30.6503 17.4466 28.7733 15.1807 26.2359 13.7865Z" fill="#0CD4DC"/>
<path d="M32.07 22.0273H9.30445C9.20319 22.6418 9.15015 23.2688 9.15015 23.9037C9.15015 27.6385 10.9716 31.1593 14.0225 33.3219C14.186 33.4377 14.3813 33.5 14.5816 33.5H26.7928C26.9931 33.5 27.1884 33.4378 27.3518 33.3219C30.4028 31.1593 32.2242 27.6385 32.2242 23.9037C32.2244 23.2689 32.1713 22.6418 32.07 22.0273Z" fill="#0CD4DC"/>
</svg>
