<svg width="27" height="34" viewBox="0 0 27 34" fill="none" xmlns="http://www.w3.org/2000/svg">
<path d="M14.3598 9.70351C14.9488 8.71988 15.8808 7.31212 17.0581 5.96131H17.0595C18.0565 4.81486 20.0091 3.34344 20.0091 3.34344C20.3026 3.12165 20.2711 2.81276 19.9374 2.65731L17.5774 1.55441C17.2437 1.39829 16.7901 1.5122 16.569 1.80635C16.569 1.80635 14.8235 4.31031 12.7691 9.64053C6.41693 6.76737 0.379028 10.7917 0.379028 17.7896C0.379028 25.0991 6.00283 36.2025 13.608 32.8509C21.6179 36.3171 26.841 25.0998 26.841 17.7896C26.841 10.7314 21.4135 6.59316 14.3598 9.70351Z" fill="#F8644A"/>
<path d="M12.937 7.33655C13.3042 7.30573 13.6285 6.98076 13.6579 6.61425C13.6579 6.61425 13.8938 3.75583 11.9017 1.76177C9.90361 -0.232952 7.05049 0.00491445 7.05049 0.00491445C6.6833 0.0357366 6.35899 0.360709 6.32884 0.727224C6.32884 0.727224 6.08896 3.58698 8.08373 5.58171C10.0772 7.57442 12.937 7.33655 12.937 7.33655Z" fill="#F8644A"/>
</svg>
