<svg width="32" height="35" viewBox="0 0 32 35" fill="none" xmlns="http://www.w3.org/2000/svg">
<path d="M27.1088 11.9746C24.2396 13.1701 21.2498 13.926 18.1863 14.2336L19.6305 11.7321L24.5553 12.0277C25.1023 12.0605 25.5725 11.6437 25.6053 11.0967C25.6381 10.5497 25.2213 10.0796 24.6743 10.0467L20.7399 9.81058L21.615 8.29485L26.5399 8.59048C27.0869 8.62329 27.557 8.20647 27.5898 7.65947C27.6226 7.11246 27.2058 6.64239 26.6588 6.60952L22.7245 6.37336L23.8236 4.46959C24.9196 2.57118 27.347 1.92078 29.2454 3.01678C31.1438 4.11284 31.7942 6.54026 30.6981 8.43867L29.147 11.1253L27.1088 11.9746Z" fill="#AE80FF"/>
<path d="M15.0237 14.3918C13.707 14.3918 12.4008 14.3105 11.1085 14.1491C11.0737 13.9041 11.0546 13.6541 11.0546 13.3995C11.0546 10.4768 13.424 8.10742 16.3467 8.10742C17.3201 8.10742 18.2313 8.37137 19.0149 8.82986L15.8093 14.3821C15.5478 14.3886 15.286 14.3918 15.0237 14.3918Z" fill="#AE80FF"/>
<path d="M9.77032 10.2862C9.0371 8.34713 8.90281 6.88803 8.90089 6.86567C8.85439 6.31966 8.37393 5.916 7.82812 5.96099C7.2821 6.00742 6.87706 6.48775 6.9235 7.03376C6.9356 7.17625 7.21119 10.1711 9.0713 13.4672C9.07242 13.5882 9.07738 13.7084 9.0844 13.828C6.98786 13.4246 4.9338 12.8062 2.93815 11.9747L1.74379 11.477C1.9007 11.0923 2.11953 10.7338 2.39372 10.4175C1.04669 9.82025 0.139421 8.47897 0.139421 6.94975C0.139421 4.85236 1.84573 3.14605 3.94312 3.14605C4.27546 3.14605 4.60443 3.19064 4.92646 3.27895C5.37622 1.65851 6.84994 0.5 8.57371 0.5C10.2526 0.5 11.706 1.59447 12.1958 3.16338C12.3127 3.15181 12.428 3.14605 12.5428 3.14605C14.3565 3.14605 15.8769 4.42251 16.2551 6.12405C13.3949 6.15944 10.927 7.85318 9.77032 10.2862Z" fill="#AE80FF"/>
<path d="M2.17484 13.8062C6.26715 15.5114 10.5901 16.376 15.0235 16.376C19.4569 16.376 23.7798 15.5114 27.8721 13.8062C28.5682 13.5162 29.3207 14.078 29.2403 14.8279C28.9097 17.9132 27.7132 29.2008 27.4455 31.7086C27.2836 33.2253 26.0111 34.3691 24.4855 34.3691H5.56145C4.03587 34.3691 2.76338 33.2253 2.60144 31.7085C2.33373 29.2008 1.13718 17.9131 0.806627 14.8278C0.726254 14.078 1.47873 13.5162 2.17484 13.8062ZM7.41607 27.754C7.41607 28.302 7.86034 28.7462 8.40833 28.7462H21.6386C22.1866 28.7462 22.6309 28.302 22.6309 27.754V22.4619C22.6309 21.9139 22.1866 21.4696 21.6386 21.4696H8.40833C7.86034 21.4696 7.41607 21.9139 7.41607 22.4619V27.754Z" fill="#AE80FF"/>
<path d="M20.6466 23.4551H9.40089V26.7626H20.6466V23.4551Z" fill="#AE80FF"/>
</svg>
