<svg width="30" height="33" viewBox="0 0 30 33" fill="none" xmlns="http://www.w3.org/2000/svg">
<path d="M4.85407 15.8488C4.85407 14.9256 5.12783 14.0377 5.63663 13.2861C5.46946 12.7468 5.38307 12.1818 5.38307 11.6218C5.38307 9.20703 6.90613 7.10334 9.11413 6.31355C9.31104 4.51311 10.4667 2.96378 12.0952 2.22219C11.2582 0.8685 9.93709 0.0747809 8.71921 0.27209C7.83903 0.415026 7.10976 1.01256 6.68117 1.91446C5.90983 1.5602 5.10763 1.50135 4.40416 1.74854C3.64292 2.01648 3.05165 2.58935 2.6943 3.40493C2.22028 4.48508 2.21971 5.87521 2.67803 7.19695C2.0604 7.62072 1.59871 8.24347 1.32888 9.0243C0.87505 10.3354 1.02651 11.9172 1.74401 13.3662C1.82254 13.5243 1.90837 13.6812 2.00206 13.8354C1.32832 14.2732 0.824001 14.9223 0.55361 15.7143C0.123901 16.971 0.314072 18.452 1.07532 19.7759C1.42481 20.3841 1.88762 20.9351 2.42672 21.388C2.24664 22.1414 2.38296 22.9693 2.82164 23.7188C3.43479 24.7642 4.53936 25.4732 5.71966 25.5926C7.30049 28.5612 9.21118 30.0758 11.9437 31.388C8.69733 27.5534 6.8921 24.3774 6.79056 19.5882C5.59568 18.7356 4.85407 17.3348 4.85407 15.8488Z" fill="#28B446"/>
<path d="M29.8324 11.4702C29.8773 9.28749 28.5944 7.32394 26.6063 6.47528C26.3162 4.61262 24.8139 3.15691 22.947 2.91028C22.9302 2.72474 22.8948 2.53976 22.8415 2.35703C22.5122 1.23371 21.521 0.387863 20.376 0.252213C19.6271 0.163088 18.9192 0.350867 18.3341 0.76174C17.8124 0.417011 17.2048 0.230913 16.5821 0.230913C14.9783 0.230913 13.6454 1.41476 13.4132 2.954C11.5793 3.32395 10.2044 4.95679 10.2044 6.8671C10.2044 6.96968 10.2089 7.07226 10.2167 7.17652C8.09062 7.5588 6.50305 9.40465 6.50305 11.6227C6.50305 12.2639 6.64161 12.8996 6.90752 13.4842C6.31007 14.1227 5.97461 14.9629 5.97461 15.8497C5.97461 17.1748 6.73642 18.3766 7.90718 18.9551C7.85557 24.0352 9.70736 27.1193 13.3201 31.2751L13.5237 31.5066L13.5607 31.5486C14.1082 32.1624 14.8964 32.4999 15.7811 32.4999C15.9342 32.4999 16.0851 32.487 16.2338 32.4679L16.0419 32.0957C14.8364 29.2308 14.0965 26.6871 13.6836 24.4259C12.128 23.9472 11.4554 22.705 11.4256 22.6479C11.2809 22.3743 11.3869 22.0346 11.6607 21.8906C11.9328 21.7465 12.271 21.8508 12.4174 22.1227C12.4382 22.1613 12.7647 22.7353 13.4788 23.1266C13.2836 21.6596 13.2269 20.32 13.2836 19.1126C13.2769 19.0515 13.2797 18.9915 13.2937 18.9298C13.3913 17.2039 13.7066 15.7432 14.1228 14.519C12.2329 13.3929 11.9995 11.2965 12.1622 10.2791C12.211 9.97359 12.4993 9.76227 12.8045 9.81384C13.1103 9.86261 13.3184 10.149 13.2707 10.454C13.2567 10.5442 13.0048 12.4035 14.5351 13.4495C14.6114 13.2729 14.6883 13.0975 14.7679 12.9332C16.2433 9.89063 18.352 8.37662 19.1683 7.87719C19.1666 6.75443 19.9031 5.7791 19.9379 5.7337C20.1258 5.48762 20.4793 5.44166 20.7238 5.62888C20.9696 5.81666 21.0167 6.16811 20.8293 6.41363C20.7042 6.57954 20.4585 6.99266 20.3486 7.44725C21.6405 7.30095 22.9016 8.02965 22.9655 8.06777C23.2331 8.22528 23.3212 8.56889 23.1641 8.83514C23.0592 9.01227 22.8718 9.11093 22.6805 9.11093C22.5835 9.11093 22.4859 9.08626 22.3967 9.03357C22.0057 8.80543 20.8153 8.30151 19.9996 8.69164C19.8577 8.76395 18.9029 9.27741 17.8163 10.4102C20.0417 10.2483 21.5894 10.9086 21.6674 10.9422C21.9507 11.0672 22.0797 11.3979 21.9558 11.681C21.8632 11.8906 21.6573 12.0162 21.4413 12.0162C21.3667 12.0162 21.2904 12.0016 21.2175 11.9691C21.1754 11.9512 19.2776 11.1653 16.7622 11.6883C16.2585 12.3962 15.7738 13.2449 15.3721 14.2561C15.371 14.3301 15.3558 14.4052 15.3233 14.4769C15.302 14.5246 15.2734 14.5661 15.242 14.6042C14.9228 15.4781 14.6653 16.4607 14.5105 17.5705C15.7788 16.7757 17.3787 16.7409 17.4702 16.7398H17.4769C17.7832 16.7398 18.0328 16.9853 18.0373 17.2925C18.0418 17.6019 17.7939 17.8559 17.4848 17.8609C17.4612 17.8615 15.1528 17.9153 14.3674 19.2533C14.3124 20.6204 14.4072 22.1468 14.6989 23.8452C14.7017 23.8581 14.7034 23.871 14.7051 23.8844C15.0978 26.1484 15.836 28.7106 17.0595 31.6193L17.3266 32.1338C17.7383 31.9264 18.0929 31.6394 18.3459 31.2863C18.7683 30.6966 18.8681 29.9814 18.6258 29.2723C17.6115 26.2986 17.643 24.0296 18.7189 22.5274C20.1135 20.5795 23.0182 20.2886 24.6249 20.2886C25.4523 20.2886 26.0206 20.3648 26.0262 20.3659L26.6029 20.4444L26.6607 19.8659C26.6685 19.7897 26.834 17.9837 25.7794 16.7566C25.7182 16.6854 25.6537 16.6182 25.5875 16.5537C25.8854 16.487 26.1799 16.3923 26.4694 16.2701C28.4687 15.4276 29.7893 13.5431 29.8324 11.4702Z" fill="#28B446"/>
</svg>
